# xmcd
#
# Track frame offsets:
#	150
#	22442
#	42927
#	62297
#	80977
#	99035
#	117668
#	134760
#	156138
#	182523
#	203270
#	225978
#	245970
#	265228
#	294493
#
# Disc length: 4255 seconds
#
# Revision: 1
# Processed by: cddbd v1.4PL0 Copyright (c) Steve Scherf et al.
# Submitted via: audiograbber 1.80
#
DISCID=d3109d0f
DTITLE=Peter Murphy - Wild Birds 1985-1995 
DYEAR=1900
DGENRE=
TTITLE0=Cuts You Up 
TTITLE1=Subway
TTITLE2=The Scarlet Thing In You
TTITLE3=Indigo Eyes 
TTITLE4=Keep Me From Harm 
TTITLE5=Final Solution 
TTITLE6=Deep Ocean Vast Sea 
TTITLE7=Strange Kind Of Love 
TTITLE8=Hit Song 
TTITLE9=Huuvola 
TTITLE10=All Night Long 
TTITLE11=Dragnet Drag 
TTITLE12=I'll Fall With Your Knife 
TTITLE13=The Sweetest Drop
TTITLE14=Roll Call 
EXTD=
EXTT0=
EXTT1=
EXTT2=
EXTT3=
EXTT4=
EXTT5=
EXTT6=
EXTT7=
EXTT8=
EXTT9=
EXTT10=
EXTT11=
EXTT12=
EXTT13=
EXTT14=
PLAYORDER=
